<svg width="45" height="45" viewBox="0 0 45 45" fill="none" xmlns="http://www.w3.org/2000/svg">
<path d="M44.2751 0.732244C43.2989 -0.244081 41.7159 -0.244081 40.7396 0.732244L22.5036 18.9682L4.26777 0.732244C3.29147 -0.244081 1.70854 -0.244081 0.732244 0.732244C-0.244081 1.70854 -0.244081 3.29147 0.732244 4.26777L18.9681 22.5037L0.732294 40.7395C-0.244031 41.716 -0.244031 43.2987 0.732294 44.2752C1.70859 45.2515 3.29152 45.2515 4.26782 44.2752L22.5036 26.0392L40.7396 44.2752C41.7159 45.2515 43.2989 45.2515 44.2751 44.2752C45.2514 43.2987 45.2514 41.716 44.2751 40.7397L26.0391 22.5037L44.2751 4.26777C45.2514 3.29147 45.2514 1.70854 44.2751 0.732244Z" fill="#0F0F0F"/>
</svg>
