<svg width="14" height="18" viewBox="0 0 14 18" fill="none" xmlns="http://www.w3.org/2000/svg">
<path fill-rule="evenodd" clip-rule="evenodd" d="M2.28026 2.33006C3.53206 1.07826 5.22988 0.375 7.0002 0.375C8.77051 0.375 10.4683 1.07826 11.7201 2.33006C12.9719 3.58187 13.6752 5.27968 13.6752 7.05C13.6752 9.00327 12.8834 10.7044 11.7162 12.3544C10.8183 13.6237 9.66862 14.901 8.44814 16.257C8.09474 16.6497 7.73541 17.0489 7.37453 17.4565C7.27962 17.5637 7.14332 17.625 7.00016 17.625C6.85699 17.625 6.7207 17.5636 6.62581 17.4564C6.27397 17.059 5.92372 16.6692 5.57906 16.2857C4.41467 14.9901 3.31428 13.7657 2.4334 12.5551C1.28497 10.9768 0.461341 9.36095 0.326555 7.53685C0.325649 7.52458 0.325195 7.51229 0.325195 7.5V7.05C0.325195 5.27968 1.02845 3.58187 2.28026 2.33006ZM7.0002 1.375C5.49509 1.375 4.05163 1.9729 2.98736 3.03717C1.9231 4.10144 1.3252 5.5449 1.3252 7.05V7.48119C1.4445 9.03347 2.14882 10.4644 3.24199 11.9668C4.08957 13.1316 5.14217 14.303 6.29849 15.5899C6.52858 15.8459 6.76278 16.1066 7.00029 16.3726C7.24804 16.0953 7.49216 15.824 7.73174 15.5578C8.94348 14.2112 10.0391 12.9936 10.8998 11.7769C12.0066 10.2122 12.6752 8.7134 12.6752 7.05C12.6752 5.5449 12.0773 4.10144 11.013 3.03717C9.94876 1.9729 8.5053 1.375 7.0002 1.375ZM7.00019 4.58333C6.34549 4.58333 5.71755 4.84318 5.25428 5.3058C4.791 5.76842 4.53028 6.396 4.52936 7.0507C4.52868 7.53953 4.673 8.01758 4.94409 8.42437C5.21517 8.83115 5.60082 9.14838 6.05224 9.33592C6.50367 9.52347 7.00058 9.57289 7.4801 9.47795C7.95962 9.383 8.40021 9.14795 8.74611 8.80254C9.09201 8.45712 9.32768 8.01687 9.4233 7.53748C9.51891 7.05809 9.47019 6.56111 9.28328 6.10942C9.09637 5.65773 8.77968 5.27164 8.37328 4.99999C7.96687 4.72833 7.48903 4.58333 7.00019 4.58333ZM4.54767 4.5982C5.19843 3.94834 6.08052 3.58333 7.0002 3.58333C7.68687 3.58333 8.35811 3.78702 8.92899 4.16861C9.49987 4.55021 9.94474 5.09257 10.2073 5.72706C10.4698 6.36156 10.5383 7.05968 10.404 7.73309C10.2697 8.40649 9.93861 9.02493 9.45272 9.51014C8.96683 9.99535 8.34793 10.3255 7.67433 10.4589C7.00074 10.5923 6.30271 10.5228 5.66859 10.2594C5.03446 9.99595 4.49273 9.55033 4.11194 8.97892C3.73114 8.4075 3.5284 7.73597 3.52936 7.0493C3.53065 6.12962 3.8969 5.24805 4.54767 4.5982Z" fill="black"/>
</svg>
