<svg width="40" height="40" viewBox="0 0 40 40" fill="none" xmlns="http://www.w3.org/2000/svg">
<path fill-rule="evenodd" clip-rule="evenodd" d="M20 40C31.0457 40 40 31.0457 40 20C40 8.95432 31.0457 0 20 0C8.95432 0 0 8.95432 0 20C0 31.0457 8.95432 40 20 40ZM21.4143 9.20668C20.2611 9.23884 19.0442 9.51644 18.1847 10.3331C17.4748 10.9898 17.1172 11.9454 17.0368 12.9008C17.0123 13.5841 17.0158 14.2692 17.0193 14.954C17.0219 15.4675 17.0246 15.981 17.0154 16.4934C16.6997 16.4957 16.383 16.495 16.0662 16.4944C15.6437 16.4935 15.221 16.4926 14.8 16.4987C14.8 16.9076 14.8006 17.3171 14.8012 17.727C14.8024 18.5478 14.8036 19.3702 14.8 20.1928C15.221 20.1989 15.6437 20.198 16.0662 20.1972C16.383 20.1965 16.6997 20.1959 17.0154 20.1982C17.0225 21.8282 17.0212 23.4582 17.0199 25.0881C17.0182 27.1256 17.0166 29.163 17.0314 31.2003C17.8978 31.1942 18.7622 31.1951 19.627 31.196C20.2757 31.1966 20.9245 31.1973 21.5744 31.195C21.5797 29.3612 21.5784 27.5289 21.577 25.6966C21.5757 23.8642 21.5744 22.0318 21.5797 20.1982C22.0167 20.1959 22.4537 20.1965 22.8906 20.1972C23.4733 20.198 24.0559 20.1989 24.6386 20.1928C24.8201 18.9649 24.9748 17.7263 25.0602 16.4826C24.4837 16.48 23.9072 16.48 23.3306 16.48C22.7541 16.48 22.1776 16.48 21.6012 16.4773C21.6012 16.2624 21.6008 16.0475 21.6005 15.8326C21.5995 15.188 21.5985 14.5436 21.6065 13.899C21.6972 13.4024 22.2096 13.0233 22.7062 13.0555H25.0655C25.0709 11.769 25.0709 10.4878 25.0655 9.20132C24.7613 9.20132 24.4571 9.201 24.1528 9.20068C23.2401 9.19968 22.3272 9.19868 21.4143 9.20668Z" fill="url(#paint0_linear_9_555)"/>
<defs>
<linearGradient id="paint0_linear_9_555" x1="-1.47904e-07" y1="18.5903" x2="40" y2="18.5903" gradientUnits="userSpaceOnUse">
<stop stop-color="#AE8625"/>
<stop offset="0.236069" stop-color="#F7E78A"/>
<stop offset="0.545" stop-color="#D2A742"/>
<stop offset="0.78" stop-color="#F7E78A"/>
<stop offset="1" stop-color="#EED967"/>
</linearGradient>
</defs>
</svg>
