<svg width="40" height="40" viewBox="0 0 40 40" fill="none" xmlns="http://www.w3.org/2000/svg">
<g clip-path="url(#clip0_9_556)">
<path fill-rule="evenodd" clip-rule="evenodd" d="M20 40C31.0457 40 40 31.0457 40 20C40 8.95432 31.0457 0 20 0C8.95432 0 0 8.95432 0 20C0 31.0457 8.95432 40 20 40ZM10 15.7567C10 12.5823 12.5826 10 15.7567 10H24.2433C27.4177 10 30 12.5826 30 15.7567V24.3211C30 27.4952 27.4177 30.0778 24.2433 30.0778H15.7567C12.5823 30.0778 10 27.4952 10 24.3211V15.7567ZM24.2433 28.1727C26.367 28.1727 28.0948 26.4448 28.0948 24.3211V15.7567C28.0948 13.633 26.367 11.9052 24.2433 11.9052H15.7567C13.633 11.9052 11.9052 13.633 11.9052 15.7567V24.3211C11.9052 26.4448 13.633 28.1727 15.7567 28.1727H24.2433ZM14.7953 20.0022C14.7953 17.1539 17.1375 14.8369 20.0159 14.8369C22.8942 14.8369 25.2364 17.1539 25.2364 20.0022C25.2364 22.8501 22.8942 25.1671 20.0159 25.1671C17.1372 25.1671 14.7953 22.8501 14.7953 20.0022ZM16.6969 20.0022C16.6969 21.8013 18.1856 23.2655 20.0159 23.2655C21.8461 23.2655 23.3349 21.8016 23.3349 20.0022C23.3349 18.2026 21.8458 16.7388 20.0159 16.7388C18.1856 16.7388 16.6969 18.2026 16.6969 20.0022ZM25.3299 15.8542C26.0083 15.8542 26.5582 15.3042 26.5582 14.6258C26.5582 13.9475 26.0083 13.3975 25.3299 13.3975C24.6515 13.3975 24.1016 13.9475 24.1016 14.6258C24.1016 15.3042 24.6515 15.8542 25.3299 15.8542Z" fill="url(#paint0_linear_9_556)"/>
</g>
<defs>
<linearGradient id="paint0_linear_9_556" x1="-1.47904e-07" y1="18.5903" x2="40" y2="18.5903" gradientUnits="userSpaceOnUse">
<stop stop-color="#AE8625"/>
<stop offset="0.236069" stop-color="#F7E78A"/>
<stop offset="0.545" stop-color="#D2A742"/>
<stop offset="0.78" stop-color="#F7E78A"/>
<stop offset="1" stop-color="#EED967"/>
</linearGradient>
<clipPath id="clip0_9_556">
<rect width="40" height="40" fill="white"/>
</clipPath>
</defs>
</svg>
