<svg width="20" height="18" viewBox="0 0 20 18" fill="none" xmlns="http://www.w3.org/2000/svg">
<path d="M10.0002 0.875C8.36248 0.875 6.79185 1.52558 5.63381 2.68362C4.47577 3.84165 3.8252 5.41229 3.8252 7.05V7.5C4.0752 10.8833 6.88353 13.6042 10.0002 17.125C13.2544 13.45 16.1752 10.6667 16.1752 7.05C16.1752 5.41229 15.5246 3.84165 14.3666 2.68362C13.2085 1.52558 11.6379 0.875 10.0002 0.875ZM10.0002 4.08333C10.5879 4.08333 11.1625 4.25768 11.6511 4.5843C12.1398 4.91092 12.5206 5.37515 12.7453 5.91824C12.97 6.46133 13.0286 7.05888 12.9136 7.63528C12.7987 8.21168 12.5153 8.74102 12.0994 9.15634C11.6835 9.57165 11.1538 9.85426 10.5772 9.96842C10.0007 10.0826 9.40319 10.0232 8.86042 9.79766C8.31764 9.57217 7.85395 9.19074 7.52801 8.70164C7.20207 8.21254 7.02854 7.63775 7.02936 7.05C7.03047 6.26281 7.34395 5.50824 7.90097 4.952C8.45799 4.39576 9.213 4.08333 10.0002 4.08333Z" stroke="black" stroke-linecap="round" stroke-linejoin="round"/>
</svg>
