<svg width="40" height="36" viewBox="0 0 40 36" fill="none" xmlns="http://www.w3.org/2000/svg">
<path d="M20.0004 1.75C16.725 1.75 13.5837 3.05116 11.2676 5.36723C8.95155 7.68331 7.65039 10.8246 7.65039 14.1V15C8.15039 21.7667 13.7671 27.2083 20.0004 34.25C26.5087 26.9 32.3504 21.3333 32.3504 14.1C32.3504 10.8246 31.0492 7.68331 28.7332 5.36723C26.4171 3.05116 23.2758 1.75 20.0004 1.75ZM20.0004 8.16667C21.1759 8.16667 22.325 8.51535 23.3023 9.1686C24.2795 9.82185 25.0411 10.7503 25.4906 11.8365C25.94 12.9227 26.0572 14.1178 25.8273 15.2706C25.5973 16.4234 25.0306 17.482 24.1988 18.3127C23.367 19.1433 22.3076 19.7085 21.1544 19.9368C20.0013 20.1652 18.8064 20.0463 17.7208 19.5953C16.6353 19.1443 15.7079 18.3815 15.056 17.4033C14.4041 16.4251 14.0571 15.2755 14.0587 14.1C14.0609 12.5256 14.6879 11.0165 15.8019 9.90399C16.916 8.79152 18.426 8.16666 20.0004 8.16667Z" stroke="#161616" stroke-linecap="round" stroke-linejoin="round"/>
</svg>
