<svg width="40" height="40" viewBox="0 0 40 40" fill="none" xmlns="http://www.w3.org/2000/svg">
<path d="M16.0894 10.3892C15.7315 9.1969 15.4857 7.97382 15.3552 6.73584C15.2244 5.50168 14.1469 4.58334 12.906 4.58334H7.14938C5.66855 4.58334 4.52855 5.86251 4.65855 7.33668C5.97105 22.1942 17.806 34.0283 32.6635 35.3417C34.1385 35.4717 35.4169 34.3358 35.4169 32.855V27.7217C35.4169 25.8483 34.4985 24.775 33.2644 24.6442C32.0264 24.514 30.8033 24.2684 29.611 23.9108C28.9041 23.7009 28.1535 23.6864 27.4389 23.8688C26.7244 24.0512 26.0726 24.4236 25.5527 24.9467L23.0885 27.4108C18.6447 25.0033 14.9969 21.3555 12.5894 16.9117L15.0535 14.4475C15.5767 13.9277 15.9494 13.2759 16.1319 12.5614C16.3144 11.8468 16.2992 11.0962 16.0894 10.3892Z" stroke="black" stroke-linecap="round" stroke-linejoin="round"/>
</svg>
