<svg width="63" height="27" viewBox="0 0 63 27" fill="none" xmlns="http://www.w3.org/2000/svg">
<g clip-path="url(#clip0_2009_463)">
<path d="M0.564453 21H13.2485V17.444H5.10045V0.980011H0.564453V21Z" fill="black"/>
<path d="M21.587 18.228C19.291 18.228 18.003 16.548 18.003 13.748V13.524C18.003 10.724 19.347 9.10001 21.587 9.10001C23.855 9.10001 25.171 10.78 25.171 13.58V13.776C25.171 16.548 23.855 18.228 21.587 18.228ZM21.559 21.308C25.955 21.308 29.287 18.368 29.287 13.748V13.524C29.287 8.96001 25.983 6.02001 21.587 6.02001C17.191 6.02001 13.859 9.01601 13.859 13.608V13.832C13.859 18.396 17.191 21.308 21.559 21.308Z" fill="black"/>
<path d="M37.665 26.404C42.481 26.404 45.3649 24.192 45.3929 19.852V6.35601H41.361V8.54001C40.521 7.05601 39.0929 6.02001 36.7129 6.02001C33.0729 6.02001 30.2729 8.96001 30.2729 13.16V13.356C30.2729 17.696 33.1009 20.356 36.6569 20.356C38.8129 20.356 40.549 19.068 41.361 17.64V19.852C41.361 22.148 40.129 23.436 37.665 23.436C35.593 23.436 34.669 22.596 34.417 21.308H30.3849C30.7769 24.332 32.933 26.404 37.665 26.404ZM37.861 17.304C35.845 17.304 34.417 15.792 34.417 13.356V13.132C34.417 10.724 35.677 9.10001 37.945 9.10001C40.1569 9.10001 41.4729 10.612 41.4729 13.104V13.3C41.4729 15.792 39.989 17.304 37.861 17.304Z" fill="black"/>
<path d="M54.9616 18.228C52.6656 18.228 51.3776 16.548 51.3776 13.748V13.524C51.3776 10.724 52.7216 9.10001 54.9616 9.10001C57.2296 9.10001 58.5456 10.78 58.5456 13.58V13.776C58.5456 16.548 57.2296 18.228 54.9616 18.228ZM54.9336 21.308C59.3296 21.308 62.6616 18.368 62.6616 13.748V13.524C62.6616 8.96001 59.3576 6.02001 54.9616 6.02001C50.5656 6.02001 47.2336 9.01601 47.2336 13.608V13.832C47.2336 18.396 50.5656 21.308 54.9336 21.308Z" fill="black"/>
</g>
<defs>
<clipPath id="clip0_2009_463">
<rect width="63" height="27" fill="white"/>
</clipPath>
</defs>
</svg>
